<svg xmlns="http://www.w3.org/2000/svg" width="800" height="360" viewBox="0 0 800 360" font-family="sans-serif">
  <rect x="0" y="0" width="800" height="360" fill="#fafafa"/>
  <text x="20" y="30" font-size="18" font-weight="bold" fill="#222">Threadblock-to-tile mapping: k_silu_blas</text>
  <text x="20" y="52" font-size="13" fill="#555">1:1 thread-per-element. Block size 256. Threadblocks tile the output array.</text>
  <text x="40" y="102" font-size="12" fill="#444">output[i]</text>
  <rect x="40" y="110" width="28" height="36" fill="#FFB347" stroke="#333" stroke-width="1"/>
  <text x="54" y="132" font-size="11" fill="#222" text-anchor="middle">0</text>
  <rect x="68" y="110" width="28" height="36" fill="#FFB347" stroke="#333" stroke-width="1"/>
  <text x="82" y="132" font-size="11" fill="#222" text-anchor="middle">1</text>
  <rect x="96" y="110" width="28" height="36" fill="#FFB347" stroke="#333" stroke-width="1"/>
  <text x="110" y="132" font-size="11" fill="#222" text-anchor="middle">2</text>
  <rect x="124" y="110" width="28" height="36" fill="#FFB347" stroke="#333" stroke-width="1"/>
  <text x="138" y="132" font-size="11" fill="#222" text-anchor="middle">3</text>
  <rect x="152" y="110" width="28" height="36" fill="#FFB347" stroke="#333" stroke-width="1"/>
  <text x="166" y="132" font-size="11" fill="#222" text-anchor="middle">4</text>
  <rect x="180" y="110" width="28" height="36" fill="#FFB347" stroke="#333" stroke-width="1"/>
  <text x="194" y="132" font-size="11" fill="#222" text-anchor="middle">5</text>
  <rect x="208" y="110" width="28" height="36" fill="#FFB347" stroke="#333" stroke-width="1"/>
  <text x="222" y="132" font-size="11" fill="#222" text-anchor="middle">6</text>
  <rect x="236" y="110" width="28" height="36" fill="#FFB347" stroke="#333" stroke-width="1"/>
  <text x="250" y="132" font-size="11" fill="#222" text-anchor="middle">7</text>
  <rect x="264" y="110" width="28" height="36" fill="#77DD77" stroke="#333" stroke-width="1"/>
  <text x="278" y="132" font-size="11" fill="#222" text-anchor="middle">8</text>
  <rect x="292" y="110" width="28" height="36" fill="#77DD77" stroke="#333" stroke-width="1"/>
  <text x="306" y="132" font-size="11" fill="#222" text-anchor="middle">9</text>
  <rect x="320" y="110" width="28" height="36" fill="#77DD77" stroke="#333" stroke-width="1"/>
  <text x="334" y="132" font-size="11" fill="#222" text-anchor="middle">10</text>
  <rect x="348" y="110" width="28" height="36" fill="#77DD77" stroke="#333" stroke-width="1"/>
  <text x="362" y="132" font-size="11" fill="#222" text-anchor="middle">11</text>
  <rect x="376" y="110" width="28" height="36" fill="#77DD77" stroke="#333" stroke-width="1"/>
  <text x="390" y="132" font-size="11" fill="#222" text-anchor="middle">12</text>
  <rect x="404" y="110" width="28" height="36" fill="#77DD77" stroke="#333" stroke-width="1"/>
  <text x="418" y="132" font-size="11" fill="#222" text-anchor="middle">13</text>
  <rect x="432" y="110" width="28" height="36" fill="#77DD77" stroke="#333" stroke-width="1"/>
  <text x="446" y="132" font-size="11" fill="#222" text-anchor="middle">14</text>
  <rect x="460" y="110" width="28" height="36" fill="#77DD77" stroke="#333" stroke-width="1"/>
  <text x="474" y="132" font-size="11" fill="#222" text-anchor="middle">15</text>
  <rect x="488" y="110" width="28" height="36" fill="#779ECB" stroke="#333" stroke-width="1"/>
  <text x="502" y="132" font-size="11" fill="#222" text-anchor="middle">16</text>
  <rect x="516" y="110" width="28" height="36" fill="#779ECB" stroke="#333" stroke-width="1"/>
  <text x="530" y="132" font-size="11" fill="#222" text-anchor="middle">17</text>
  <rect x="544" y="110" width="28" height="36" fill="#779ECB" stroke="#333" stroke-width="1"/>
  <text x="558" y="132" font-size="11" fill="#222" text-anchor="middle">18</text>
  <rect x="572" y="110" width="28" height="36" fill="#779ECB" stroke="#333" stroke-width="1"/>
  <text x="586" y="132" font-size="11" fill="#222" text-anchor="middle">19</text>
  <rect x="600" y="110" width="28" height="36" fill="#779ECB" stroke="#333" stroke-width="1"/>
  <text x="614" y="132" font-size="11" fill="#222" text-anchor="middle">20</text>
  <rect x="628" y="110" width="28" height="36" fill="#779ECB" stroke="#333" stroke-width="1"/>
  <text x="642" y="132" font-size="11" fill="#222" text-anchor="middle">21</text>
  <rect x="656" y="110" width="28" height="36" fill="#779ECB" stroke="#333" stroke-width="1"/>
  <text x="670" y="132" font-size="11" fill="#222" text-anchor="middle">22</text>
  <rect x="684" y="110" width="28" height="36" fill="#779ECB" stroke="#333" stroke-width="1"/>
  <text x="698" y="132" font-size="11" fill="#222" text-anchor="middle">23</text>
  <line x1="40" y1="156" x2="264" y2="156" stroke="#FFB347" stroke-width="3"/>
  <text x="152" y="188" font-size="13" fill="#222" text-anchor="middle">block 0</text>
  <line x1="264" y1="156" x2="488" y2="156" stroke="#77DD77" stroke-width="3"/>
  <text x="376" y="188" font-size="13" fill="#222" text-anchor="middle">block 1</text>
  <line x1="488" y1="156" x2="712" y2="156" stroke="#779ECB" stroke-width="3"/>
  <text x="600" y="188" font-size="13" fill="#222" text-anchor="middle">block 2</text>
  <text x="716" y="133" font-size="20" fill="#999">…</text>
  <text x="40" y="226" font-size="14" fill="#333" font-family="monospace">i = blockIdx.x * blockDim.x + threadIdx.x</text>
  <text x="40" y="248" font-size="13" fill="#555">Block k covers indices [k*blockDim.x .. (k+1)*blockDim.x - 1] (k = blockIdx.x); blockDim.x = 256.</text>
</svg>
