<svg xmlns="http://www.w3.org/2000/svg" width="800" height="360" viewBox="0 0 800 360" font-family="sans-serif">
  <rect x="0" y="0" width="800" height="360" fill="#fafafa"/>
  <text x="20" y="30" font-size="18" font-weight="bold" fill="#222">Threadblock-to-tile mapping: sgemv_cublas_match</text>
  <text x="20" y="52" font-size="13" fill="#555">Block covers 8 rows. Block size 128. Reduction: strided_shared.</text>
  <text x="60" y="82" font-size="12" fill="#444">y[row]</text>
  <rect x="60" y="90" width="30" height="20" fill="#FFB347" stroke="#333" stroke-width="1"/>
  <text x="75" y="103" font-size="9" fill="#222" text-anchor="middle">0</text>
  <rect x="60" y="110" width="30" height="20" fill="#FFB347" stroke="#333" stroke-width="1"/>
  <text x="75" y="123" font-size="9" fill="#222" text-anchor="middle">1</text>
  <rect x="60" y="130" width="30" height="20" fill="#FFB347" stroke="#333" stroke-width="1"/>
  <text x="75" y="143" font-size="9" fill="#222" text-anchor="middle">2</text>
  <rect x="60" y="150" width="30" height="20" fill="#FFB347" stroke="#333" stroke-width="1"/>
  <text x="75" y="163" font-size="9" fill="#222" text-anchor="middle">3</text>
  <rect x="60" y="170" width="30" height="20" fill="#FFB347" stroke="#333" stroke-width="1"/>
  <text x="75" y="183" font-size="9" fill="#222" text-anchor="middle">4</text>
  <rect x="60" y="190" width="30" height="20" fill="#FFB347" stroke="#333" stroke-width="1"/>
  <text x="75" y="203" font-size="9" fill="#222" text-anchor="middle">5</text>
  <rect x="60" y="210" width="30" height="20" fill="#FFB347" stroke="#333" stroke-width="1"/>
  <text x="75" y="223" font-size="9" fill="#222" text-anchor="middle">6</text>
  <rect x="60" y="230" width="30" height="20" fill="#FFB347" stroke="#333" stroke-width="1"/>
  <text x="75" y="243" font-size="9" fill="#222" text-anchor="middle">7</text>
  <rect x="60" y="250" width="30" height="20" fill="#77DD77" stroke="#333" stroke-width="1"/>
  <text x="75" y="263" font-size="9" fill="#222" text-anchor="middle">8</text>
  <rect x="60" y="270" width="30" height="20" fill="#77DD77" stroke="#333" stroke-width="1"/>
  <text x="75" y="283" font-size="9" fill="#222" text-anchor="middle">9</text>
  <rect x="60" y="290" width="30" height="20" fill="#77DD77" stroke="#333" stroke-width="1"/>
  <text x="75" y="303" font-size="9" fill="#222" text-anchor="middle">10</text>
  <rect x="60" y="310" width="30" height="20" fill="#77DD77" stroke="#333" stroke-width="1"/>
  <text x="75" y="323" font-size="9" fill="#222" text-anchor="middle">11</text>
  <rect x="60" y="330" width="30" height="20" fill="#77DD77" stroke="#333" stroke-width="1"/>
  <text x="75" y="343" font-size="9" fill="#222" text-anchor="middle">12</text>
  <rect x="60" y="350" width="30" height="20" fill="#77DD77" stroke="#333" stroke-width="1"/>
  <text x="75" y="363" font-size="9" fill="#222" text-anchor="middle">13</text>
  <rect x="60" y="370" width="30" height="20" fill="#77DD77" stroke="#333" stroke-width="1"/>
  <text x="75" y="383" font-size="9" fill="#222" text-anchor="middle">14</text>
  <rect x="60" y="390" width="30" height="20" fill="#77DD77" stroke="#333" stroke-width="1"/>
  <text x="75" y="403" font-size="9" fill="#222" text-anchor="middle">15</text>
  <rect x="60" y="410" width="30" height="20" fill="#779ECB" stroke="#333" stroke-width="1"/>
  <text x="75" y="423" font-size="9" fill="#222" text-anchor="middle">16</text>
  <rect x="60" y="430" width="30" height="20" fill="#779ECB" stroke="#333" stroke-width="1"/>
  <text x="75" y="443" font-size="9" fill="#222" text-anchor="middle">17</text>
  <rect x="60" y="450" width="30" height="20" fill="#779ECB" stroke="#333" stroke-width="1"/>
  <text x="75" y="463" font-size="9" fill="#222" text-anchor="middle">18</text>
  <rect x="60" y="470" width="30" height="20" fill="#779ECB" stroke="#333" stroke-width="1"/>
  <text x="75" y="483" font-size="9" fill="#222" text-anchor="middle">19</text>
  <rect x="60" y="490" width="30" height="20" fill="#779ECB" stroke="#333" stroke-width="1"/>
  <text x="75" y="503" font-size="9" fill="#222" text-anchor="middle">20</text>
  <rect x="60" y="510" width="30" height="20" fill="#779ECB" stroke="#333" stroke-width="1"/>
  <text x="75" y="523" font-size="9" fill="#222" text-anchor="middle">21</text>
  <rect x="60" y="530" width="30" height="20" fill="#779ECB" stroke="#333" stroke-width="1"/>
  <text x="75" y="543" font-size="9" fill="#222" text-anchor="middle">22</text>
  <rect x="60" y="550" width="30" height="20" fill="#779ECB" stroke="#333" stroke-width="1"/>
  <text x="75" y="563" font-size="9" fill="#222" text-anchor="middle">23</text>
  <text x="40" y="620" font-size="14" fill="#333" font-family="monospace">Block covers 8 rows; 128 threads per block.</text>
</svg>
